<svg width="208" height="193" viewBox="0 0 208 193" fill="none" xmlns="http://www.w3.org/2000/svg">
<rect x="43.6092" y="126.568" width="10" height="47" transform="rotate(-22 43.6092 126.568)" fill="#FF0000"/>
<rect x="50.2033" y="121.747" width="12.8263" height="19" transform="rotate(6 50.2033 121.747)" fill="black"/>
<rect x="99.2502" y="53.3962" width="4" height="100" transform="rotate(-22 99.2502 53.3962)" fill="black"/>
<rect x="102.032" y="52.2723" width="10" height="100" transform="rotate(-22 102.032 52.2723)" fill="#FF0000"/>
<rect x="126.281" y="58.9019" width="48" height="5" transform="rotate(-40.5 126.281 58.9019)" fill="white"/>
<rect x="149.786" y="118.183" width="48" height="5" transform="rotate(-3.5 149.786 118.183)" fill="white"/>
<rect x="145.376" y="102.708" width="48" height="5" transform="rotate(-7 145.376 102.708)" fill="white"/>
<rect x="133.649" y="74.468" width="48" height="5" transform="rotate(-37 133.649 74.468)" fill="white"/>
<rect x="139.858" y="89.8376" width="48" height="5" transform="rotate(-22 139.858 89.8376)" fill="white"/>
<path d="M99.5 53.5L136.431 145.655L30.5093 137L99.5 53.5Z" fill="#D9D9D9"/>
</svg>
