<svg width="313" height="295" viewBox="0 0 313 295" fill="none" xmlns="http://www.w3.org/2000/svg">
  <path d="M95.7556 234.021C96.537 233.24 97.5968 232.801 98.7019 232.801C99.8069 232.801 100.867 233.24 101.648 234.021C102.43 234.803 102.869 235.862 102.869 236.967C102.869 238.073 102.43 239.132 101.648 239.914L88.3899 253.172C87.6085 253.953 86.5487 254.392 85.4436 254.392C84.3385 254.392 83.2787 253.953 82.4973 253.172C81.7159 252.391 81.2769 251.331 81.2769 250.226C81.2769 249.121 81.7159 248.061 82.4973 247.279L95.7556 234.021ZM54.5077 192.773C55.2891 191.992 56.3489 191.553 57.454 191.553C58.559 191.553 59.6188 191.992 60.4002 192.773C61.1816 193.555 61.6206 194.615 61.6206 195.72C61.6206 196.825 61.1816 197.884 60.4002 198.666L47.142 211.924C46.3606 212.706 45.3008 213.145 44.1957 213.145C43.0906 213.145 42.0308 212.706 41.2494 211.924C40.468 211.143 40.029 210.083 40.029 208.978C40.029 207.873 40.468 206.813 41.2494 206.032L54.5077 192.773ZM97.2272 203.087C98.0086 202.305 99.0685 201.866 100.174 201.866C101.279 201.866 102.338 202.305 103.12 203.087C103.901 203.868 104.34 204.928 104.34 206.033C104.34 207.138 103.901 208.198 103.12 208.979L89.8615 222.238C89.0801 223.019 88.0203 223.458 86.9153 223.458C85.8102 223.458 84.7504 223.019 83.969 222.238C83.1876 221.456 82.7486 220.396 82.7486 219.291C82.7486 218.186 83.1876 217.126 83.969 216.345L97.2272 203.087ZM85.4421 191.302C86.2235 190.52 87.2833 190.081 88.3884 190.081C89.4935 190.081 90.5533 190.52 91.3347 191.302C92.1161 192.083 92.5551 193.143 92.5551 194.248C92.5551 195.353 92.1161 196.413 91.3347 197.194L78.0764 210.452C77.295 211.234 76.2352 211.673 75.1302 211.673C74.0251 211.673 72.9653 211.234 72.1839 210.452C71.4025 209.671 70.9635 208.611 70.9635 207.506C70.9635 206.401 71.4025 205.341 72.1839 204.56L85.4421 191.302Z" fill="#7CB342" />
  <path d="M76.6047 247.279L98.7003 225.184C99.4817 224.402 99.9207 223.343 99.9207 222.238C99.9207 221.133 99.4817 220.073 98.7003 219.291L75.1301 195.721C74.3487 194.94 73.2889 194.501 72.1838 194.501C71.0787 194.501 70.0189 194.94 69.2375 195.721L47.1419 217.817L76.6047 247.279ZM47.1404 247.281C55.9793 256.12 66.7332 256.135 73.6569 250.227L44.1942 220.764C38.2883 227.69 38.3016 238.442 47.1404 247.281ZM61.2796 244.927C61.6703 245.318 61.8898 245.847 61.8898 246.4C61.8898 246.953 61.6703 247.482 61.2796 247.873C60.8889 248.264 60.359 248.483 59.8065 248.483C59.254 248.483 58.724 248.264 58.3333 247.873C57.9426 247.482 57.7232 246.953 57.7232 246.4C57.7232 245.847 57.9426 245.318 58.3333 244.927C58.724 244.536 59.254 244.317 59.8065 244.317C60.359 244.317 60.8889 244.536 61.2796 244.927ZM49.4945 233.142C49.8852 233.532 50.1047 234.062 50.1047 234.615C50.1047 235.167 49.8852 235.697 49.4945 236.088C49.1038 236.479 48.5739 236.698 48.0214 236.698C47.4688 236.698 46.9389 236.479 46.5482 236.088C46.1575 235.697 45.938 235.167 45.938 234.615C45.938 234.062 46.1575 233.532 46.5482 233.142C46.9389 232.751 47.4688 232.532 48.0214 232.532C48.5739 232.532 49.1038 232.751 49.4945 233.142Z" fill="#7CB342" />
  <path d="M36.8284 239.915L42.9641 238.688M54.5061 257.593L55.6095 252.562" stroke="#7CB342" stroke-width="1.25" stroke-linecap="round" />
  <g clip-path="url(#clip0_0_1)">
    <path d="M0.000244141 130.048L36.9486 166.996L48.3847 155.56L0.000244141 107.175L0.000244141 130.048ZM34.0734 130.305L53.8565 150.089L65.5073 138.609L54.0923 127.194L34.0734 107.175L34.0734 130.305Z" fill="#47C5FB" />
    <path d="M65.5073 138.609L74.1974 129.919V107.175L54.0923 127.194L65.5073 138.609Z" fill="#00569E" />
    <path d="M53.9852 150.217L42.5488 138.781L54.0923 127.194L65.5074 138.609L53.9852 150.217Z" fill="#00B5F8" />
    <path d="M65.5073 138.609L62.3532 129.104L55.0577 128.16L65.5073 138.609Z" fill="url(#paint0_linear_0_1)" fill-opacity="0.8" />
  </g>
  <g clip-path="url(#clip1_0_1)">
    <path d="M277.574 67.2081C287.078 53.6356 283.779 34.9286 270.207 25.4252C256.641 15.9259 237.944 19.2185 228.437 32.7762L215.121 51.7934C212.972 54.8784 213.724 59.1209 216.806 61.2788L235.803 74.5807C249.374 84.0756 268.073 80.7769 277.574 67.2081Z" fill="#294172" />
    <path d="M273.348 36.296C266.991 31.8451 258.199 33.3952 253.748 39.752L249.464 45.8707L243.37 41.6041C237.014 37.1531 228.221 38.7037 223.77 45.0602C219.32 51.4166 220.87 60.2093 227.226 64.6602C233.583 69.1111 242.375 67.5605 246.826 61.2042L251.111 55.0853L257.204 59.3519C263.561 63.8028 272.353 62.2526 276.804 55.896C281.255 49.5393 279.705 40.7469 273.348 36.296ZM241.434 57.4287C239.065 60.8119 234.385 61.6371 231.002 59.268C227.619 56.8989 226.793 52.219 229.162 48.8358C231.531 45.4523 236.211 44.6272 239.595 46.9962L245.688 51.2629L245.676 51.2799L245.719 51.3098L241.434 57.4287ZM260.98 53.9599L254.886 49.6933L254.898 49.676L254.856 49.6463L259.14 43.5276C261.509 40.1442 266.189 39.319 269.572 41.688C272.956 44.0569 273.781 48.737 271.412 52.1204C269.043 55.5038 264.363 56.3289 260.98 53.9599Z" fill="#3C6EB4" />
    <path d="M275.651 38.4297C274.92 37.5694 274.309 36.9793 273.343 36.3027C266.974 31.8427 258.193 33.391 253.734 39.7603L249.453 45.8736L244.623 42.4913C243.116 41.4366 241.07 41.7679 240.019 43.2721C238.973 44.7661 239.344 46.7976 240.834 47.8411L244.833 50.6422C245.308 50.9747 245.424 51.6283 245.092 52.1023L241.388 57.3922C239.031 60.7461 234.402 61.5589 231.044 59.2075C229.907 58.411 229.729 58.0648 228.953 57.5211C227.321 56.3788 225.464 56.7081 224.411 58.2118C223.541 59.4559 223.858 61.2717 224.923 62.5264C225.654 63.3867 226.265 63.9769 227.231 64.6535C233.601 69.1135 242.381 67.5652 246.841 61.1958L251.121 55.0826L255.952 58.465C257.458 59.5196 259.504 59.1883 260.555 57.6841C261.602 56.1899 261.23 54.1586 259.74 53.1151L255.741 50.314C255.513 50.1547 255.358 49.9113 255.309 49.6375C255.261 49.3636 255.323 49.0817 255.482 48.8537L259.186 43.5638C261.543 40.2099 266.172 39.3971 269.53 41.7485C270.668 42.545 270.845 42.8914 271.621 43.4352C273.253 44.5774 275.11 44.2479 276.163 42.7445C277.033 41.5001 276.716 39.6844 275.651 38.4297Z" fill="white" />
  </g>
  <g clip-path="url(#clip2_0_1)">
    <path d="M100.101 28.7944C111.787 40.4806 111.787 59.4284 100.1 71.1153C88.4129 82.8024 69.4652 82.8021 57.7791 71.1159C46.0923 59.4291 46.0924 40.4812 57.7792 28.7944C69.4662 17.1074 88.4138 17.1076 100.101 28.7944Z" fill="#DD4814" />
    <path d="M61.7256 61.5181C60.1646 63.0791 60.1646 65.6084 61.7256 67.1694C63.2857 68.7296 65.8152 68.7297 67.3762 67.1687C68.9366 65.6084 68.9364 63.0789 67.3762 61.5187C65.8152 59.9578 63.2859 59.9578 61.7256 61.5181ZM94.7375 54.1868C94.1668 56.3185 95.4302 58.509 97.5613 59.0789C99.6924 59.6505 101.882 58.3868 102.453 56.2551C103.025 54.1241 101.761 51.9339 99.6294 51.3628C97.4993 50.7922 95.3082 52.0568 94.7375 54.1868ZM70.688 58.207C67.8961 55.4151 66.8162 51.5616 67.4445 47.9463L61.9196 46.5523C61.1003 50.6763 61.7857 55.0403 63.9785 58.7617C65.598 58.5973 67.2766 59.1344 68.5184 60.3762C69.7596 61.6174 70.2967 63.296 70.1325 64.9157C73.8535 67.1101 78.2178 67.7959 82.3428 66.9755L80.9479 61.4496C77.3333 62.0787 73.48 60.999 70.688 58.207ZM70.6871 41.7023C74.9982 37.3912 81.8405 37.1595 86.4272 41.0038L90.3934 36.9189C87.0835 34.0047 82.93 32.5705 78.7868 32.605C78.1184 34.0851 76.8153 35.2639 75.1249 35.718C73.4304 36.1724 71.7109 35.8002 70.3915 34.8491C69.028 35.6215 67.7751 36.5745 66.6667 37.6822C64.7781 39.567 63.3512 41.8632 62.4977 44.3912L67.9787 45.9461C68.5606 44.3506 69.4851 42.9021 70.6871 41.7023ZM87.192 58.2072C85.9923 59.4091 84.5438 60.3335 82.9484 60.9155L84.5029 66.3961C87.0316 65.5437 89.3285 64.1171 91.2134 62.2282C92.3212 61.1199 93.2738 59.8666 94.0452 58.5025C93.0941 57.1831 92.723 55.4644 93.1761 53.7693C93.6301 52.0767 94.8092 50.7756 96.2892 50.1074C96.3238 45.964 94.8894 41.8107 91.9756 38.5004L87.8896 42.4678C91.7358 47.0548 91.5031 53.8957 87.1919 58.207L87.192 58.2072ZM74.7056 34.1569C76.8372 33.5858 78.1022 31.3967 77.5304 29.2657C76.9596 27.1338 74.7702 25.8691 72.6383 26.4399C70.5073 27.0117 69.2435 29.2016 69.8141 31.3337C70.3854 33.4638 72.5755 34.7275 74.7056 34.1569Z" fill="white" />
  </g>
  <g clip-path="url(#clip3_0_1)">
    <path d="M293.315 225.596C293.523 225.375 293.675 225.065 293.73 224.596C294.619 224.202 295.328 223.666 295.38 222.605C296.351 221.857 296.4 221.348 296.343 220.868C296.536 220.683 297.949 219.651 297.673 218.253C299.249 217.01 298.699 215.569 297.265 215.146C297.108 214.412 296.966 213.674 295.443 213.497C295.208 212.786 294.547 212.42 293.365 212.36C292.848 211.547 292.088 211.369 291.2 211.525C290.388 210.517 288.926 210.92 288.459 211.01C287.822 210.587 287.099 210.309 285.757 211.097C284.791 210.482 284.015 210.986 283.229 211.44C284.087 208.201 284.277 204.878 280.421 201.046L280.186 200.211C281.107 196.434 278.629 189.73 271.594 189.304C270.21 188.351 269.009 187.874 267.758 187.268C263.535 184.009 258.637 185.403 257.6 186.026C255.458 186.315 253.284 186.732 250.916 187.868C247.561 187.817 245.122 188.957 243.323 190.757C243.297 190.784 240.303 195.074 240.354 198.43C239.218 200.798 238.802 202.972 238.512 205.114C237.889 206.151 236.495 211.049 239.755 215.272C240.361 216.523 240.838 217.724 241.79 219.108C242.217 226.143 248.921 228.621 252.698 227.701L253.533 227.935C257.365 231.791 260.688 231.601 263.927 230.743C263.473 231.529 262.969 232.305 263.584 233.271C262.796 234.613 263.074 235.336 263.497 235.973C263.407 236.44 263.004 237.902 264.012 238.714C263.856 239.602 264.034 240.362 264.847 240.879C264.908 242.061 265.273 242.722 265.985 242.957C266.16 244.479 266.899 244.621 267.632 244.779C268.056 246.212 269.497 246.763 270.74 245.186C272.137 245.462 273.17 244.049 273.355 243.856C273.835 243.913 274.345 243.864 275.092 242.893C276.153 242.841 276.689 242.133 277.083 241.243C278.447 241.082 278.469 240.096 278.863 239.338C280.087 238.717 279.885 238.093 280.17 237.471C281.389 236.677 281.232 235.909 281.226 234.938L281.798 234.388C282.421 231.975 281.354 229.4 280.685 228.196C281.889 228.865 284.463 229.934 286.874 229.311L287.424 228.739C288.396 228.745 289.165 228.902 289.958 227.683C290.58 227.398 291.203 227.6 291.825 226.375C292.323 226.117 292.919 226.018 293.316 225.596L285.44 196.885" fill="black" />
    <path d="M292.402 218.64C286.299 220.59 282.279 221.252 279.566 221.104C277.59 217.815 280.896 214.268 282.223 213.089C282.086 213.465 282.015 213.823 282.159 214.118C282.696 214.027 283.611 212.713 284.827 212.372C284.59 212.733 284.51 212.933 284.591 213.293C285.561 212.792 286.555 212.203 287.409 212.125C287.154 212.373 286.867 212.555 286.766 213.111C287.779 212.807 288.763 212.386 289.852 212.382C289.52 212.731 289.148 213.093 289.166 213.325C290.142 213.096 291.066 213.003 291.941 213.036C291.407 213.455 291.255 213.706 291.223 213.904C292.145 213.915 293.116 213.732 293.966 214.032C293.49 214.264 293.12 214.541 293.066 214.954C293.57 215.148 294.439 214.691 295.638 215.125C295.229 215.461 294.789 215.811 294.791 215.972C295.668 216.503 296.361 216.602 297.062 216.722C296.277 217.531 295.054 218.723 295.176 218.736L296.172 218.747C295.604 219.735 294.564 220.288 293.805 220.686C293.75 221.151 294.273 221.145 294.855 221.093C294.105 221.666 293.355 222.112 292.605 222.443C292.577 222.993 293.314 222.777 293.805 222.807C292.589 223.636 291.883 223.796 291.18 223.954C291.167 224.566 291.715 224.526 292.187 224.575C291.13 225.061 290.365 225.089 289.583 225.143C289.633 225.476 289.555 225.835 290.28 226.033C289.417 226.264 288.633 226.305 287.912 226.193C287.789 226.748 288.22 226.905 288.49 227.179C287.459 227.285 286.605 227.154 285.683 227.115C285.659 227.269 285.801 227.566 286.079 227.983C283.406 228.023 278.174 226.625 279.64 222.529C283.959 222.114 288.205 220.706 292.402 218.638L292.402 218.64ZM271.036 240.006C272.986 233.903 273.648 229.883 273.5 227.17C270.21 225.195 266.664 228.501 265.485 229.827C265.861 229.69 266.218 229.619 266.514 229.763C266.423 230.301 265.108 231.216 264.767 232.431C265.128 232.194 265.328 232.115 265.689 232.195C265.188 233.165 264.598 234.159 264.521 235.013C264.769 234.759 264.951 234.471 265.507 234.37C265.203 235.384 264.781 236.368 264.778 237.456C265.127 237.124 265.489 236.752 265.721 236.77C265.492 237.746 265.398 238.67 265.431 239.545C265.851 239.011 266.101 238.86 266.299 238.828C266.31 239.75 266.128 240.72 266.428 241.57C266.66 241.095 266.937 240.724 267.349 240.67C267.544 241.174 267.086 242.044 267.521 243.242C267.857 242.833 268.207 242.393 268.367 242.395C268.899 243.273 268.998 243.966 269.117 244.667C269.926 243.882 271.119 242.659 271.132 242.781L271.142 243.778C272.131 243.208 272.684 242.169 273.082 241.41C273.546 241.355 273.541 241.878 273.489 242.459C274.062 241.71 274.508 240.959 274.839 240.21C275.388 240.181 275.173 240.918 275.203 241.41C276.031 240.193 276.192 239.488 276.35 238.784C276.961 238.771 276.921 239.32 276.971 239.792C277.456 238.735 277.485 237.97 277.539 237.188C277.872 237.238 278.23 237.16 278.428 237.884C278.66 237.022 278.7 236.238 278.589 235.517C279.143 235.394 279.301 235.825 279.575 236.095C279.681 235.064 279.549 234.211 279.51 233.288C279.664 233.264 279.962 233.406 280.378 233.684C280.419 231.011 279.02 225.778 274.925 227.245C274.512 231.563 273.104 235.809 271.035 240.006L271.036 240.006Z" fill="#75A928" />
    <path d="M250.037 207.394C247.567 204.952 247.713 200.802 250.364 198.125C253.015 195.448 257.167 195.258 259.637 197.701C259.653 197.716 259.668 197.732 259.684 197.747C262.154 200.19 262.008 204.34 259.357 207.016C256.706 209.693 252.555 209.883 250.084 207.441L250.037 207.394ZM270.357 212.486C267.049 213.175 263.721 210.567 262.923 206.661C262.126 202.755 264.161 199.03 267.468 198.34C270.777 197.651 274.105 200.259 274.902 204.165C275.7 208.071 273.665 211.796 270.357 212.486ZM265.2 218.117C265.889 214.809 263.281 211.481 259.375 210.683C255.469 209.885 251.744 211.92 251.055 215.228C250.366 218.536 252.974 221.865 256.88 222.662C260.785 223.46 264.511 221.425 265.2 218.117ZM278.205 200.356C276.626 203.092 268.55 192.158 271.085 191.182C274.57 190.804 279.741 194.731 278.205 200.356ZM253.387 225.411C256.124 223.831 245.189 215.755 244.213 218.29C243.835 221.775 247.763 226.947 253.387 225.411ZM267.797 225.158C264.702 229.51 259.391 230.396 255.479 226.233C254.053 224.563 268.939 223.555 267.797 225.158ZM278.205 214.987C282.557 211.892 283.443 206.581 279.28 202.668C277.61 201.243 276.602 216.129 278.205 214.987ZM273.797 221.278C276.078 219.114 276.503 215.273 275.518 214.278C274.321 213.068 271.326 213.6 268.676 216.187C265.983 218.842 265.281 221.554 266.515 222.804C267.912 224.221 271.847 223.272 273.797 221.278L273.797 221.278ZM248.987 196.739C247.134 198.761 243.825 200.653 242.879 199.718C241.934 198.837 242.262 194.384 244.615 192.111C246.908 189.611 251.323 189.328 252.008 190.075C253.094 191.089 250.96 194.862 248.987 196.739ZM261.716 195.154C258.674 194.871 255.125 192.58 255.416 190.568C255.848 188.822 258.763 186.447 263.344 187.268C266.879 188.267 269.022 190.736 268.809 192.304C268.288 194.446 265.136 195.408 261.716 195.154L261.716 195.154ZM248.204 209.719C247.949 206.478 245.591 202.458 243.475 202.52C241.636 202.763 238.953 205.67 239.753 210.599C240.178 214.022 243.893 216.733 245.603 216.73C247.858 216.441 248.425 213.356 248.205 209.72L248.204 209.719Z" fill="#BC1142" />
  </g>
  <path d="M303.569 161.394L308.774 150.582C309.068 149.972 309.165 149.285 309.052 148.617C308.938 147.948 308.62 147.332 308.14 146.853L275.875 111.462C275.485 111.033 274.941 110.776 274.362 110.748C273.783 110.72 273.216 110.923 272.787 111.312C272.736 111.359 272.688 111.406 272.643 111.457L270.018 114.346C269.674 114.724 269.473 115.21 269.451 115.72C269.428 116.23 269.585 116.732 269.894 117.138L302.219 159.766C302.463 160.088 302.613 160.472 302.651 160.874C302.689 161.277 302.614 161.682 302.434 162.044C302.254 162.406 301.977 162.711 301.634 162.924C301.29 163.137 300.894 163.25 300.49 163.25H300.616C301.233 163.25 301.837 163.076 302.36 162.747C302.882 162.419 303.301 161.95 303.569 161.394Z" fill="#0065A9" />
  <path d="M262.431 161.394L257.224 150.582C256.931 149.972 256.834 149.285 256.948 148.617C257.061 147.949 257.379 147.333 257.858 146.853L290.125 111.462C290.515 111.033 291.059 110.776 291.638 110.748C292.217 110.72 292.784 110.923 293.213 111.312C293.264 111.359 293.312 111.406 293.357 111.457L295.982 114.346C296.328 114.724 296.529 115.211 296.552 115.723C296.574 116.234 296.417 116.737 296.106 117.144L263.781 159.766C263.537 160.088 263.387 160.472 263.349 160.874C263.311 161.277 263.386 161.682 263.566 162.044C263.746 162.406 264.023 162.711 264.366 162.924C264.71 163.137 265.106 163.25 265.51 163.25H265.375C264.76 163.248 264.157 163.073 263.637 162.745C263.116 162.416 262.698 161.948 262.431 161.394Z" fill="#007ACC" />
  <path d="M257.224 150.582C256.931 149.972 256.834 149.285 256.948 148.617C257.061 147.949 257.379 147.333 257.858 146.853C257.592 147.122 257.412 147.464 257.34 147.835C257.267 148.207 257.306 148.591 257.451 148.94C257.596 149.29 257.841 149.589 258.156 149.799C258.47 150.01 258.839 150.123 259.218 150.125H306.783C307.163 150.125 307.534 150.013 307.85 149.802C308.166 149.591 308.413 149.29 308.558 148.939C308.703 148.588 308.741 148.202 308.667 147.829C308.593 147.456 308.409 147.114 308.14 146.846C308.619 147.325 308.938 147.941 309.052 148.609C309.166 149.277 309.069 149.964 308.776 150.575L303.578 161.384C303.312 161.942 302.893 162.413 302.371 162.743C301.848 163.073 301.243 163.249 300.625 163.25H265.375C264.757 163.25 264.152 163.076 263.63 162.747C263.107 162.418 262.687 161.948 262.42 161.392L257.224 150.582Z" fill="#1F9CF0" />
  <g clip-path="url(#clip4_0_1)">
    <path d="M208.862 224.136L188.895 254.067L208.862 284H193.886L173.919 254.067L193.886 224.136H208.862Z" fill="#453A62" />
    <path d="M188.895 224.136L168.927 254.067L188.895 284H173.919L133.986 224.136H148.959L161.438 242.842L173.92 224.136H188.895Z" fill="#5E5086" />
    <path d="M140.64 241.596L147.296 251.574H124V241.595H140.64V241.596ZM150.623 256.561L157.279 266.539H124V256.561H150.623Z" fill="#8F4E8B" />
  </g>
  <g clip-path="url(#clip5_0_1)">
    <path d="M165.788 0.0140381C153.126 0.0140381 153.916 5.50525 153.916 5.50525L153.93 11.1943H166.014V12.9023H149.131C149.131 12.9023 141.028 11.9834 141.028 24.7597C141.028 37.5365 148.101 37.0834 148.101 37.0834H152.321V31.1545C152.321 31.1545 152.094 24.0822 159.281 24.0822H171.265C171.265 24.0822 177.999 24.191 177.999 17.5746V6.63474C177.999 6.63474 179.021 0.0140381 165.788 0.0140381ZM159.125 3.83982C159.411 3.83956 159.694 3.89561 159.958 4.00477C160.221 4.11392 160.461 4.27404 160.663 4.47595C160.865 4.67786 161.025 4.9176 161.134 5.18146C161.243 5.44531 161.299 5.7281 161.299 6.01365C161.299 6.29919 161.243 6.58198 161.134 6.84584C161.025 7.1097 160.865 7.34944 160.663 7.55135C160.461 7.75326 160.221 7.91337 159.958 8.02253C159.694 8.13168 159.411 8.18773 159.125 8.18748C158.84 8.18773 158.557 8.13168 158.293 8.02253C158.029 7.91337 157.79 7.75326 157.588 7.55135C157.386 7.34944 157.226 7.1097 157.117 6.84584C157.007 6.58198 156.951 6.29919 156.952 6.01365C156.951 5.7281 157.007 5.44531 157.117 5.18146C157.226 4.9176 157.386 4.67786 157.588 4.47595C157.79 4.27404 158.029 4.11392 158.293 4.00477C158.557 3.89561 158.84 3.83956 159.125 3.83982Z" fill="url(#paint1_linear_0_1)" />
    <path d="M166.148 49.634C178.81 49.634 178.02 44.1428 178.02 44.1428L178.006 38.4539H165.922V36.7459H182.805C182.805 36.7459 190.908 37.6649 190.908 24.8881C190.908 12.1115 183.835 12.5647 183.835 12.5647H179.615V18.4934C179.615 18.4934 179.842 25.5656 172.655 25.5656H160.671C160.671 25.5656 153.937 25.4569 153.937 32.0735V43.0135C153.937 43.0135 152.915 49.634 166.148 49.634H166.148ZM172.811 45.8086C172.525 45.8089 172.242 45.7528 171.979 45.6437C171.715 45.5345 171.475 45.3744 171.273 45.1725C171.071 44.9706 170.911 44.7308 170.802 44.467C170.693 44.2031 170.637 43.9203 170.637 43.6348C170.637 43.3492 170.693 43.0664 170.802 42.8025C170.911 42.5387 171.071 42.2989 171.273 42.097C171.475 41.895 171.715 41.7349 171.979 41.6257C172.242 41.5166 172.525 41.4605 172.811 41.4608C173.096 41.4605 173.379 41.5166 173.643 41.6257C173.907 41.7349 174.147 41.895 174.348 42.0969C174.55 42.2988 174.71 42.5385 174.82 42.8024C174.929 43.0663 174.985 43.349 174.985 43.6346C174.985 43.9201 174.929 44.2029 174.82 44.4668C174.71 44.7306 174.55 44.9704 174.348 45.1723C174.147 45.3742 173.907 45.5343 173.643 45.6435C173.379 45.7526 173.096 45.8087 172.811 45.8084V45.8086Z" fill="url(#paint2_linear_0_1)" />
  </g>
  <circle cx="166" cy="137" r="75" stroke="#131313" stroke-width="10" />
  <defs>
    <linearGradient id="paint0_linear_0_1" x1="57.8784" y1="138.196" x2="60.5874" y2="130.679" gradientUnits="userSpaceOnUse">
      <stop />
      <stop offset="1" stop-opacity="0" />
    </linearGradient>
    <linearGradient id="paint1_linear_0_1" x1="145.822" y1="4.47705" x2="170.54" y2="28.9491" gradientUnits="userSpaceOnUse">
      <stop stop-color="#387EB8" />
      <stop offset="1" stop-color="#366994" />
    </linearGradient>
    <linearGradient id="paint2_linear_0_1" x1="160.994" y1="20.1916" x2="187.539" y2="45.2854" gradientUnits="userSpaceOnUse">
      <stop stop-color="#FFE052" />
      <stop offset="1" stop-color="#FFC331" />
    </linearGradient>
    <clipPath id="clip0_0_1">
      <rect width="60" height="74.2881" fill="white" transform="translate(0 167) rotate(-90)" />
    </clipPath>
    <clipPath id="clip1_0_1">
      <rect width="60" height="60" fill="white" transform="translate(245.633 8.21814) rotate(35)" />
    </clipPath>
    <clipPath id="clip2_0_1">
      <rect width="60" height="60" fill="white" transform="translate(36.5736 50) rotate(-45)" />
    </clipPath>
    <clipPath id="clip3_0_1">
      <rect width="46.9725" height="60" fill="white" transform="translate(302.307 216.606) rotate(135)" />
    </clipPath>
    <clipPath id="clip4_0_1">
      <rect width="84.8619" height="60" fill="white" transform="translate(208.862 284) rotate(-180)" />
    </clipPath>
    <clipPath id="clip5_0_1">
      <rect width="50" height="49.8047" fill="white" transform="translate(141)" />
    </clipPath>
  </defs>
</svg>
  