<svg width="83" height="115" viewBox="0 0 83 115" fill="none" xmlns="http://www.w3.org/2000/svg">
<g filter="url(#filter0_d_402_70)">
<rect x="4" y="7" width="75" height="100" rx="3" fill="#865528"/>
<rect x="4" y="7" width="75" height="100" rx="3" fill="#865528"/>
</g>
<rect x="7" y="18" width="70" height="86.6667" rx="3" fill="#865528"/>
<rect x="7" y="18" width="70" height="86.6667" rx="3" fill="white"/>
<rect x="25" width="34" height="14" fill="#A2A2A2"/>
<rect x="11.5" y="22.5" width="27" height="32" rx="1.5" fill="#D6D6D6" stroke="black"/>
<circle cx="24.5" cy="31.5" r="7.5" fill="black"/>
<path d="M30 53.5C31.1046 53.5 32.0104 52.6025 31.9037 51.5031C31.811 50.5489 31.6521 49.6136 31.4291 48.7165C31.0522 47.1999 30.4997 45.8219 29.8033 44.6612C29.1069 43.5004 28.2801 42.5797 27.3701 41.9515C26.4602 41.3233 25.4849 41 24.5 41C23.5151 41 22.5398 41.3233 21.6299 41.9515C20.7199 42.5797 19.8931 43.5004 19.1967 44.6612C18.5003 45.8219 17.9478 47.1999 17.5709 48.7165C17.3479 49.6136 17.189 50.5489 17.0963 51.5031C16.9896 52.6025 17.8954 53.5 19 53.5L24.5 53.5H30Z" fill="black"/>
<rect x="42" y="23" width="26" height="3" fill="black"/>
<rect x="11" y="61" width="22" height="1" fill="black"/>
<rect x="42" y="28" width="10" height="1" fill="black"/>
<rect x="42" y="31" width="18" height="1" fill="black"/>
<rect x="42" y="34" width="18" height="1" fill="black"/>
<rect x="44" y="44" width="28" height="1" fill="black"/>
<rect x="44" y="46" width="28" height="1" fill="black"/>
<rect x="44" y="48" width="28" height="1" fill="black"/>
<rect x="44" y="50" width="28" height="1" fill="black"/>
<rect x="42.25" y="42.25" width="31.5" height="10.5" stroke="black" stroke-width="0.5"/>
<rect x="42" y="37" width="5" height="1" fill="black"/>
<rect x="48" y="37" width="5" height="1" fill="black"/>
<rect x="54" y="37" width="5" height="1" fill="black"/>
<rect x="11" y="58" width="26" height="2" fill="black"/>
<rect x="11" y="61" width="22" height="1" fill="black"/>
<rect x="11" y="67" width="62" height="1" fill="black"/>
<rect x="11" y="69" width="62" height="1" fill="black"/>
<rect x="11" y="71" width="62" height="1" fill="black"/>
<rect x="11" y="73" width="62" height="1" fill="black"/>
<rect x="11" y="75" width="62" height="1" fill="black"/>
<rect x="11" y="63" width="5" height="1" fill="black"/>
<rect x="17" y="63" width="5" height="1" fill="black"/>
<rect x="23" y="63" width="5" height="1" fill="black"/>
<rect x="11" y="79" width="26" height="2" fill="black"/>
<rect x="11" y="82" width="22" height="1" fill="black"/>
<rect x="11" y="88" width="62" height="1" fill="black"/>
<rect x="11" y="90" width="62" height="1" fill="black"/>
<rect x="11" y="92" width="62" height="1" fill="black"/>
<rect x="11" y="94" width="62" height="1" fill="black"/>
<rect x="11" y="96" width="62" height="1" fill="black"/>
<rect x="11" y="84" width="5" height="1" fill="black"/>
<rect x="17" y="84" width="5" height="1" fill="black"/>
<rect x="23" y="84" width="5" height="1" fill="black"/>
<defs>
<filter id="filter0_d_402_70" x="0" y="7" width="83" height="108" filterUnits="userSpaceOnUse" color-interpolation-filters="sRGB">
<feFlood flood-opacity="0" result="BackgroundImageFix"/>
<feColorMatrix in="SourceAlpha" type="matrix" values="0 0 0 0 0 0 0 0 0 0 0 0 0 0 0 0 0 0 127 0" result="hardAlpha"/>
<feOffset dy="4"/>
<feGaussianBlur stdDeviation="2"/>
<feComposite in2="hardAlpha" operator="out"/>
<feColorMatrix type="matrix" values="0 0 0 0 0 0 0 0 0 0 0 0 0 0 0 0 0 0 0.25 0"/>
<feBlend mode="normal" in2="BackgroundImageFix" result="effect1_dropShadow_402_70"/>
<feBlend mode="normal" in="SourceGraphic" in2="effect1_dropShadow_402_70" result="shape"/>
</filter>
</defs>
</svg>
